<mxfile host="Electron" modified="2024-06-26T19:40:40.793Z" agent="Mozilla/5.0 (Windows NT 10.0; Win64; x64) AppleWebKit/537.36 (KHTML, like Gecko) draw.io/24.5.3 Chrome/124.0.6367.207 Electron/30.0.6 Safari/537.36" etag="tdR12ncEGp9hnb4jwFNK" version="24.5.3" type="device">
  <diagram name="Page-1" id="i9uXfgIkB2JMXRGqE9Lg">
    <mxGraphModel dx="1434" dy="1936" grid="1" gridSize="10" guides="1" tooltips="1" connect="1" arrows="1" fold="1" page="1" pageScale="1" pageWidth="850" pageHeight="1100" math="0" shadow="0">
      <root>
        <mxCell id="0" />
        <mxCell id="1" parent="0" />
        <mxCell id="xu1IErq7kuzSZ3sOeT8O-83" style="edgeStyle=orthogonalEdgeStyle;rounded=0;orthogonalLoop=1;jettySize=auto;html=1;endArrow=ERzeroToMany;endFill=0;startArrow=ERmandOne;startFill=0;strokeWidth=1;entryX=0.25;entryY=0;entryDx=0;entryDy=0;" parent="1" source="xu1IErq7kuzSZ3sOeT8O-1" target="xu1IErq7kuzSZ3sOeT8O-61" edge="1">
          <mxGeometry relative="1" as="geometry">
            <mxPoint x="560" y="430" as="targetPoint" />
            <Array as="points">
              <mxPoint x="460" y="300" />
              <mxPoint x="460" y="390" />
              <mxPoint x="663" y="390" />
            </Array>
          </mxGeometry>
        </mxCell>
        <mxCell id="xu1IErq7kuzSZ3sOeT8O-111" style="edgeStyle=orthogonalEdgeStyle;rounded=0;orthogonalLoop=1;jettySize=auto;html=1;endArrow=ERzeroToMany;endFill=0;startArrow=ERmandOne;startFill=0;" parent="1" source="xu1IErq7kuzSZ3sOeT8O-1" target="xu1IErq7kuzSZ3sOeT8O-89" edge="1">
          <mxGeometry relative="1" as="geometry">
            <Array as="points">
              <mxPoint x="255" y="-60" />
            </Array>
          </mxGeometry>
        </mxCell>
        <mxCell id="xu1IErq7kuzSZ3sOeT8O-185" style="edgeStyle=orthogonalEdgeStyle;rounded=0;orthogonalLoop=1;jettySize=auto;html=1;endArrow=ERzeroToMany;endFill=0;startArrow=ERmandOne;startFill=0;" parent="1" source="xu1IErq7kuzSZ3sOeT8O-1" target="xu1IErq7kuzSZ3sOeT8O-154" edge="1">
          <mxGeometry relative="1" as="geometry">
            <Array as="points">
              <mxPoint x="290" y="900" />
            </Array>
          </mxGeometry>
        </mxCell>
        <mxCell id="xu1IErq7kuzSZ3sOeT8O-1" value="users" style="shape=table;startSize=30;container=1;collapsible=1;childLayout=tableLayout;fixedRows=1;rowLines=0;fontStyle=1;align=center;resizeLast=1;html=1;" parent="1" vertex="1">
          <mxGeometry x="110" y="140" width="290" height="210" as="geometry" />
        </mxCell>
        <mxCell id="xu1IErq7kuzSZ3sOeT8O-2" value="" style="shape=tableRow;horizontal=0;startSize=0;swimlaneHead=0;swimlaneBody=0;fillColor=none;collapsible=0;dropTarget=0;points=[[0,0.5],[1,0.5]];portConstraint=eastwest;top=0;left=0;right=0;bottom=1;" parent="xu1IErq7kuzSZ3sOeT8O-1" vertex="1">
          <mxGeometry y="30" width="290" height="30" as="geometry" />
        </mxCell>
        <mxCell id="xu1IErq7kuzSZ3sOeT8O-3" value="PK" style="shape=partialRectangle;connectable=0;fillColor=none;top=0;left=0;bottom=0;right=0;fontStyle=1;overflow=hidden;whiteSpace=wrap;html=1;" parent="xu1IErq7kuzSZ3sOeT8O-2" vertex="1">
          <mxGeometry width="30" height="30" as="geometry">
            <mxRectangle width="30" height="30" as="alternateBounds" />
          </mxGeometry>
        </mxCell>
        <mxCell id="xu1IErq7kuzSZ3sOeT8O-4" value="id" style="shape=partialRectangle;connectable=0;fillColor=none;top=0;left=0;bottom=0;right=0;align=left;spacingLeft=6;fontStyle=5;overflow=hidden;whiteSpace=wrap;html=1;" parent="xu1IErq7kuzSZ3sOeT8O-2" vertex="1">
          <mxGeometry x="30" width="140" height="30" as="geometry">
            <mxRectangle width="140" height="30" as="alternateBounds" />
          </mxGeometry>
        </mxCell>
        <mxCell id="xu1IErq7kuzSZ3sOeT8O-14" value="&lt;span style=&quot;font-weight: 400;&quot;&gt;varchar(255)&lt;/span&gt;" style="shape=partialRectangle;connectable=0;fillColor=none;top=0;left=0;bottom=0;right=0;align=left;spacingLeft=6;fontStyle=5;overflow=hidden;whiteSpace=wrap;html=1;" parent="xu1IErq7kuzSZ3sOeT8O-2" vertex="1">
          <mxGeometry x="170" width="120" height="30" as="geometry">
            <mxRectangle width="120" height="30" as="alternateBounds" />
          </mxGeometry>
        </mxCell>
        <mxCell id="xu1IErq7kuzSZ3sOeT8O-5" value="" style="shape=tableRow;horizontal=0;startSize=0;swimlaneHead=0;swimlaneBody=0;fillColor=none;collapsible=0;dropTarget=0;points=[[0,0.5],[1,0.5]];portConstraint=eastwest;top=0;left=0;right=0;bottom=0;" parent="xu1IErq7kuzSZ3sOeT8O-1" vertex="1">
          <mxGeometry y="60" width="290" height="30" as="geometry" />
        </mxCell>
        <mxCell id="xu1IErq7kuzSZ3sOeT8O-6" value="" style="shape=partialRectangle;connectable=0;fillColor=none;top=0;left=0;bottom=0;right=0;editable=1;overflow=hidden;whiteSpace=wrap;html=1;" parent="xu1IErq7kuzSZ3sOeT8O-5" vertex="1">
          <mxGeometry width="30" height="30" as="geometry">
            <mxRectangle width="30" height="30" as="alternateBounds" />
          </mxGeometry>
        </mxCell>
        <mxCell id="xu1IErq7kuzSZ3sOeT8O-7" value="email" style="shape=partialRectangle;connectable=0;fillColor=none;top=0;left=0;bottom=0;right=0;align=left;spacingLeft=6;overflow=hidden;whiteSpace=wrap;html=1;" parent="xu1IErq7kuzSZ3sOeT8O-5" vertex="1">
          <mxGeometry x="30" width="140" height="30" as="geometry">
            <mxRectangle width="140" height="30" as="alternateBounds" />
          </mxGeometry>
        </mxCell>
        <mxCell id="xu1IErq7kuzSZ3sOeT8O-15" value="varchar(255)" style="shape=partialRectangle;connectable=0;fillColor=none;top=0;left=0;bottom=0;right=0;align=left;spacingLeft=6;overflow=hidden;whiteSpace=wrap;html=1;" parent="xu1IErq7kuzSZ3sOeT8O-5" vertex="1">
          <mxGeometry x="170" width="120" height="30" as="geometry">
            <mxRectangle width="120" height="30" as="alternateBounds" />
          </mxGeometry>
        </mxCell>
        <mxCell id="xu1IErq7kuzSZ3sOeT8O-8" value="" style="shape=tableRow;horizontal=0;startSize=0;swimlaneHead=0;swimlaneBody=0;fillColor=none;collapsible=0;dropTarget=0;points=[[0,0.5],[1,0.5]];portConstraint=eastwest;top=0;left=0;right=0;bottom=0;" parent="xu1IErq7kuzSZ3sOeT8O-1" vertex="1">
          <mxGeometry y="90" width="290" height="30" as="geometry" />
        </mxCell>
        <mxCell id="xu1IErq7kuzSZ3sOeT8O-9" value="" style="shape=partialRectangle;connectable=0;fillColor=none;top=0;left=0;bottom=0;right=0;editable=1;overflow=hidden;whiteSpace=wrap;html=1;" parent="xu1IErq7kuzSZ3sOeT8O-8" vertex="1">
          <mxGeometry width="30" height="30" as="geometry">
            <mxRectangle width="30" height="30" as="alternateBounds" />
          </mxGeometry>
        </mxCell>
        <mxCell id="xu1IErq7kuzSZ3sOeT8O-10" value="username" style="shape=partialRectangle;connectable=0;fillColor=none;top=0;left=0;bottom=0;right=0;align=left;spacingLeft=6;overflow=hidden;whiteSpace=wrap;html=1;" parent="xu1IErq7kuzSZ3sOeT8O-8" vertex="1">
          <mxGeometry x="30" width="140" height="30" as="geometry">
            <mxRectangle width="140" height="30" as="alternateBounds" />
          </mxGeometry>
        </mxCell>
        <mxCell id="xu1IErq7kuzSZ3sOeT8O-16" value="varchar(255)" style="shape=partialRectangle;connectable=0;fillColor=none;top=0;left=0;bottom=0;right=0;align=left;spacingLeft=6;overflow=hidden;whiteSpace=wrap;html=1;" parent="xu1IErq7kuzSZ3sOeT8O-8" vertex="1">
          <mxGeometry x="170" width="120" height="30" as="geometry">
            <mxRectangle width="120" height="30" as="alternateBounds" />
          </mxGeometry>
        </mxCell>
        <mxCell id="xu1IErq7kuzSZ3sOeT8O-11" value="" style="shape=tableRow;horizontal=0;startSize=0;swimlaneHead=0;swimlaneBody=0;fillColor=none;collapsible=0;dropTarget=0;points=[[0,0.5],[1,0.5]];portConstraint=eastwest;top=0;left=0;right=0;bottom=0;" parent="xu1IErq7kuzSZ3sOeT8O-1" vertex="1">
          <mxGeometry y="120" width="290" height="30" as="geometry" />
        </mxCell>
        <mxCell id="xu1IErq7kuzSZ3sOeT8O-12" value="" style="shape=partialRectangle;connectable=0;fillColor=none;top=0;left=0;bottom=0;right=0;editable=1;overflow=hidden;whiteSpace=wrap;html=1;" parent="xu1IErq7kuzSZ3sOeT8O-11" vertex="1">
          <mxGeometry width="30" height="30" as="geometry">
            <mxRectangle width="30" height="30" as="alternateBounds" />
          </mxGeometry>
        </mxCell>
        <mxCell id="xu1IErq7kuzSZ3sOeT8O-13" value="password" style="shape=partialRectangle;connectable=0;fillColor=none;top=0;left=0;bottom=0;right=0;align=left;spacingLeft=6;overflow=hidden;whiteSpace=wrap;html=1;" parent="xu1IErq7kuzSZ3sOeT8O-11" vertex="1">
          <mxGeometry x="30" width="140" height="30" as="geometry">
            <mxRectangle width="140" height="30" as="alternateBounds" />
          </mxGeometry>
        </mxCell>
        <mxCell id="xu1IErq7kuzSZ3sOeT8O-17" value="varchar(255)" style="shape=partialRectangle;connectable=0;fillColor=none;top=0;left=0;bottom=0;right=0;align=left;spacingLeft=6;overflow=hidden;whiteSpace=wrap;html=1;strokeColor=inherit;" parent="xu1IErq7kuzSZ3sOeT8O-11" vertex="1">
          <mxGeometry x="170" width="120" height="30" as="geometry">
            <mxRectangle width="120" height="30" as="alternateBounds" />
          </mxGeometry>
        </mxCell>
        <mxCell id="xu1IErq7kuzSZ3sOeT8O-23" style="shape=tableRow;horizontal=0;startSize=0;swimlaneHead=0;swimlaneBody=0;fillColor=none;collapsible=0;dropTarget=0;points=[[0,0.5],[1,0.5]];portConstraint=eastwest;top=0;left=0;right=0;bottom=0;" parent="xu1IErq7kuzSZ3sOeT8O-1" vertex="1">
          <mxGeometry y="150" width="290" height="30" as="geometry" />
        </mxCell>
        <mxCell id="xu1IErq7kuzSZ3sOeT8O-24" style="shape=partialRectangle;connectable=0;fillColor=none;top=0;left=0;bottom=0;right=0;editable=1;overflow=hidden;whiteSpace=wrap;html=1;" parent="xu1IErq7kuzSZ3sOeT8O-23" vertex="1">
          <mxGeometry width="30" height="30" as="geometry">
            <mxRectangle width="30" height="30" as="alternateBounds" />
          </mxGeometry>
        </mxCell>
        <mxCell id="xu1IErq7kuzSZ3sOeT8O-25" value="create_at" style="shape=partialRectangle;connectable=0;fillColor=none;top=0;left=0;bottom=0;right=0;align=left;spacingLeft=6;overflow=hidden;whiteSpace=wrap;html=1;" parent="xu1IErq7kuzSZ3sOeT8O-23" vertex="1">
          <mxGeometry x="30" width="140" height="30" as="geometry">
            <mxRectangle width="140" height="30" as="alternateBounds" />
          </mxGeometry>
        </mxCell>
        <mxCell id="xu1IErq7kuzSZ3sOeT8O-26" value="timestamp" style="shape=partialRectangle;connectable=0;fillColor=none;top=0;left=0;bottom=0;right=0;align=left;spacingLeft=6;overflow=hidden;whiteSpace=wrap;html=1;" parent="xu1IErq7kuzSZ3sOeT8O-23" vertex="1">
          <mxGeometry x="170" width="120" height="30" as="geometry">
            <mxRectangle width="120" height="30" as="alternateBounds" />
          </mxGeometry>
        </mxCell>
        <mxCell id="xu1IErq7kuzSZ3sOeT8O-19" style="shape=tableRow;horizontal=0;startSize=0;swimlaneHead=0;swimlaneBody=0;fillColor=none;collapsible=0;dropTarget=0;points=[[0,0.5],[1,0.5]];portConstraint=eastwest;top=0;left=0;right=0;bottom=0;" parent="xu1IErq7kuzSZ3sOeT8O-1" vertex="1">
          <mxGeometry y="180" width="290" height="30" as="geometry" />
        </mxCell>
        <mxCell id="xu1IErq7kuzSZ3sOeT8O-20" style="shape=partialRectangle;connectable=0;fillColor=none;top=0;left=0;bottom=0;right=0;editable=1;overflow=hidden;whiteSpace=wrap;html=1;" parent="xu1IErq7kuzSZ3sOeT8O-19" vertex="1">
          <mxGeometry width="30" height="30" as="geometry">
            <mxRectangle width="30" height="30" as="alternateBounds" />
          </mxGeometry>
        </mxCell>
        <mxCell id="xu1IErq7kuzSZ3sOeT8O-21" value="update_at" style="shape=partialRectangle;connectable=0;fillColor=none;top=0;left=0;bottom=0;right=0;align=left;spacingLeft=6;overflow=hidden;whiteSpace=wrap;html=1;" parent="xu1IErq7kuzSZ3sOeT8O-19" vertex="1">
          <mxGeometry x="30" width="140" height="30" as="geometry">
            <mxRectangle width="140" height="30" as="alternateBounds" />
          </mxGeometry>
        </mxCell>
        <mxCell id="xu1IErq7kuzSZ3sOeT8O-22" value="timestamp" style="shape=partialRectangle;connectable=0;fillColor=none;top=0;left=0;bottom=0;right=0;align=left;spacingLeft=6;overflow=hidden;whiteSpace=wrap;html=1;" parent="xu1IErq7kuzSZ3sOeT8O-19" vertex="1">
          <mxGeometry x="170" width="120" height="30" as="geometry">
            <mxRectangle width="120" height="30" as="alternateBounds" />
          </mxGeometry>
        </mxCell>
        <mxCell id="xu1IErq7kuzSZ3sOeT8O-82" style="edgeStyle=orthogonalEdgeStyle;rounded=0;orthogonalLoop=1;jettySize=auto;html=1;entryX=0.5;entryY=0;entryDx=0;entryDy=0;endArrow=ERzeroToMany;endFill=0;startArrow=ERmandOne;startFill=0;" parent="1" source="xu1IErq7kuzSZ3sOeT8O-27" target="xu1IErq7kuzSZ3sOeT8O-61" edge="1">
          <mxGeometry relative="1" as="geometry" />
        </mxCell>
        <mxCell id="xu1IErq7kuzSZ3sOeT8O-110" style="edgeStyle=orthogonalEdgeStyle;rounded=0;orthogonalLoop=1;jettySize=auto;html=1;endArrow=ERzeroToMany;endFill=0;startArrow=ERmandOne;startFill=0;" parent="1" source="xu1IErq7kuzSZ3sOeT8O-27" target="xu1IErq7kuzSZ3sOeT8O-89" edge="1">
          <mxGeometry relative="1" as="geometry" />
        </mxCell>
        <mxCell id="xu1IErq7kuzSZ3sOeT8O-183" style="edgeStyle=orthogonalEdgeStyle;rounded=0;orthogonalLoop=1;jettySize=auto;html=1;endArrow=ERzeroToMany;endFill=0;startArrow=ERmandOne;startFill=0;" parent="1" source="xu1IErq7kuzSZ3sOeT8O-27" target="xu1IErq7kuzSZ3sOeT8O-154" edge="1">
          <mxGeometry relative="1" as="geometry">
            <Array as="points">
              <mxPoint x="950" y="230" />
              <mxPoint x="950" y="900" />
            </Array>
          </mxGeometry>
        </mxCell>
        <mxCell id="xu1IErq7kuzSZ3sOeT8O-27" value="post" style="shape=table;startSize=30;container=1;collapsible=1;childLayout=tableLayout;fixedRows=1;rowLines=0;fontStyle=1;align=center;resizeLast=1;html=1;" parent="1" vertex="1">
          <mxGeometry x="590" y="140" width="290" height="180" as="geometry" />
        </mxCell>
        <mxCell id="xu1IErq7kuzSZ3sOeT8O-28" value="" style="shape=tableRow;horizontal=0;startSize=0;swimlaneHead=0;swimlaneBody=0;fillColor=none;collapsible=0;dropTarget=0;points=[[0,0.5],[1,0.5]];portConstraint=eastwest;top=0;left=0;right=0;bottom=1;" parent="xu1IErq7kuzSZ3sOeT8O-27" vertex="1">
          <mxGeometry y="30" width="290" height="30" as="geometry" />
        </mxCell>
        <mxCell id="xu1IErq7kuzSZ3sOeT8O-29" value="PK" style="shape=partialRectangle;connectable=0;fillColor=none;top=0;left=0;bottom=0;right=0;fontStyle=1;overflow=hidden;whiteSpace=wrap;html=1;" parent="xu1IErq7kuzSZ3sOeT8O-28" vertex="1">
          <mxGeometry width="30" height="30" as="geometry">
            <mxRectangle width="30" height="30" as="alternateBounds" />
          </mxGeometry>
        </mxCell>
        <mxCell id="xu1IErq7kuzSZ3sOeT8O-30" value="id" style="shape=partialRectangle;connectable=0;fillColor=none;top=0;left=0;bottom=0;right=0;align=left;spacingLeft=6;fontStyle=5;overflow=hidden;whiteSpace=wrap;html=1;" parent="xu1IErq7kuzSZ3sOeT8O-28" vertex="1">
          <mxGeometry x="30" width="140" height="30" as="geometry">
            <mxRectangle width="140" height="30" as="alternateBounds" />
          </mxGeometry>
        </mxCell>
        <mxCell id="xu1IErq7kuzSZ3sOeT8O-31" value="&lt;span style=&quot;font-weight: 400;&quot;&gt;int&lt;/span&gt;" style="shape=partialRectangle;connectable=0;fillColor=none;top=0;left=0;bottom=0;right=0;align=left;spacingLeft=6;fontStyle=5;overflow=hidden;whiteSpace=wrap;html=1;" parent="xu1IErq7kuzSZ3sOeT8O-28" vertex="1">
          <mxGeometry x="170" width="120" height="30" as="geometry">
            <mxRectangle width="120" height="30" as="alternateBounds" />
          </mxGeometry>
        </mxCell>
        <mxCell id="xu1IErq7kuzSZ3sOeT8O-32" value="" style="shape=tableRow;horizontal=0;startSize=0;swimlaneHead=0;swimlaneBody=0;fillColor=none;collapsible=0;dropTarget=0;points=[[0,0.5],[1,0.5]];portConstraint=eastwest;top=0;left=0;right=0;bottom=0;" parent="xu1IErq7kuzSZ3sOeT8O-27" vertex="1">
          <mxGeometry y="60" width="290" height="30" as="geometry" />
        </mxCell>
        <mxCell id="xu1IErq7kuzSZ3sOeT8O-33" value="" style="shape=partialRectangle;connectable=0;fillColor=none;top=0;left=0;bottom=0;right=0;editable=1;overflow=hidden;whiteSpace=wrap;html=1;" parent="xu1IErq7kuzSZ3sOeT8O-32" vertex="1">
          <mxGeometry width="30" height="30" as="geometry">
            <mxRectangle width="30" height="30" as="alternateBounds" />
          </mxGeometry>
        </mxCell>
        <mxCell id="xu1IErq7kuzSZ3sOeT8O-34" value="content" style="shape=partialRectangle;connectable=0;fillColor=none;top=0;left=0;bottom=0;right=0;align=left;spacingLeft=6;overflow=hidden;whiteSpace=wrap;html=1;" parent="xu1IErq7kuzSZ3sOeT8O-32" vertex="1">
          <mxGeometry x="30" width="140" height="30" as="geometry">
            <mxRectangle width="140" height="30" as="alternateBounds" />
          </mxGeometry>
        </mxCell>
        <mxCell id="xu1IErq7kuzSZ3sOeT8O-35" value="text" style="shape=partialRectangle;connectable=0;fillColor=none;top=0;left=0;bottom=0;right=0;align=left;spacingLeft=6;overflow=hidden;whiteSpace=wrap;html=1;" parent="xu1IErq7kuzSZ3sOeT8O-32" vertex="1">
          <mxGeometry x="170" width="120" height="30" as="geometry">
            <mxRectangle width="120" height="30" as="alternateBounds" />
          </mxGeometry>
        </mxCell>
        <mxCell id="xu1IErq7kuzSZ3sOeT8O-44" style="shape=tableRow;horizontal=0;startSize=0;swimlaneHead=0;swimlaneBody=0;fillColor=none;collapsible=0;dropTarget=0;points=[[0,0.5],[1,0.5]];portConstraint=eastwest;top=0;left=0;right=0;bottom=0;" parent="xu1IErq7kuzSZ3sOeT8O-27" vertex="1">
          <mxGeometry y="90" width="290" height="30" as="geometry" />
        </mxCell>
        <mxCell id="xu1IErq7kuzSZ3sOeT8O-45" style="shape=partialRectangle;connectable=0;fillColor=none;top=0;left=0;bottom=0;right=0;editable=1;overflow=hidden;whiteSpace=wrap;html=1;" parent="xu1IErq7kuzSZ3sOeT8O-44" vertex="1">
          <mxGeometry width="30" height="30" as="geometry">
            <mxRectangle width="30" height="30" as="alternateBounds" />
          </mxGeometry>
        </mxCell>
        <mxCell id="xu1IErq7kuzSZ3sOeT8O-46" value="create_at" style="shape=partialRectangle;connectable=0;fillColor=none;top=0;left=0;bottom=0;right=0;align=left;spacingLeft=6;overflow=hidden;whiteSpace=wrap;html=1;" parent="xu1IErq7kuzSZ3sOeT8O-44" vertex="1">
          <mxGeometry x="30" width="140" height="30" as="geometry">
            <mxRectangle width="140" height="30" as="alternateBounds" />
          </mxGeometry>
        </mxCell>
        <mxCell id="xu1IErq7kuzSZ3sOeT8O-47" value="timestamp" style="shape=partialRectangle;connectable=0;fillColor=none;top=0;left=0;bottom=0;right=0;align=left;spacingLeft=6;overflow=hidden;whiteSpace=wrap;html=1;" parent="xu1IErq7kuzSZ3sOeT8O-44" vertex="1">
          <mxGeometry x="170" width="120" height="30" as="geometry">
            <mxRectangle width="120" height="30" as="alternateBounds" />
          </mxGeometry>
        </mxCell>
        <mxCell id="xu1IErq7kuzSZ3sOeT8O-48" style="shape=tableRow;horizontal=0;startSize=0;swimlaneHead=0;swimlaneBody=0;fillColor=none;collapsible=0;dropTarget=0;points=[[0,0.5],[1,0.5]];portConstraint=eastwest;top=0;left=0;right=0;bottom=0;" parent="xu1IErq7kuzSZ3sOeT8O-27" vertex="1">
          <mxGeometry y="120" width="290" height="30" as="geometry" />
        </mxCell>
        <mxCell id="xu1IErq7kuzSZ3sOeT8O-49" style="shape=partialRectangle;connectable=0;fillColor=none;top=0;left=0;bottom=0;right=0;editable=1;overflow=hidden;whiteSpace=wrap;html=1;" parent="xu1IErq7kuzSZ3sOeT8O-48" vertex="1">
          <mxGeometry width="30" height="30" as="geometry">
            <mxRectangle width="30" height="30" as="alternateBounds" />
          </mxGeometry>
        </mxCell>
        <mxCell id="xu1IErq7kuzSZ3sOeT8O-50" value="update_at" style="shape=partialRectangle;connectable=0;fillColor=none;top=0;left=0;bottom=0;right=0;align=left;spacingLeft=6;overflow=hidden;whiteSpace=wrap;html=1;" parent="xu1IErq7kuzSZ3sOeT8O-48" vertex="1">
          <mxGeometry x="30" width="140" height="30" as="geometry">
            <mxRectangle width="140" height="30" as="alternateBounds" />
          </mxGeometry>
        </mxCell>
        <mxCell id="xu1IErq7kuzSZ3sOeT8O-51" value="timestamp" style="shape=partialRectangle;connectable=0;fillColor=none;top=0;left=0;bottom=0;right=0;align=left;spacingLeft=6;overflow=hidden;whiteSpace=wrap;html=1;" parent="xu1IErq7kuzSZ3sOeT8O-48" vertex="1">
          <mxGeometry x="170" width="120" height="30" as="geometry">
            <mxRectangle width="120" height="30" as="alternateBounds" />
          </mxGeometry>
        </mxCell>
        <mxCell id="xu1IErq7kuzSZ3sOeT8O-56" value="" style="shape=tableRow;horizontal=0;startSize=0;swimlaneHead=0;swimlaneBody=0;fillColor=none;collapsible=0;dropTarget=0;points=[[0,0.5],[1,0.5]];portConstraint=eastwest;top=0;left=0;right=0;bottom=0;" parent="xu1IErq7kuzSZ3sOeT8O-27" vertex="1">
          <mxGeometry y="150" width="290" height="30" as="geometry" />
        </mxCell>
        <mxCell id="xu1IErq7kuzSZ3sOeT8O-57" value="FK" style="shape=partialRectangle;connectable=0;fillColor=none;top=0;left=0;bottom=0;right=0;fontStyle=0;overflow=hidden;whiteSpace=wrap;html=1;" parent="xu1IErq7kuzSZ3sOeT8O-56" vertex="1">
          <mxGeometry width="30" height="30" as="geometry">
            <mxRectangle width="30" height="30" as="alternateBounds" />
          </mxGeometry>
        </mxCell>
        <mxCell id="xu1IErq7kuzSZ3sOeT8O-58" value="userId" style="shape=partialRectangle;connectable=0;fillColor=none;top=0;left=0;bottom=0;right=0;align=left;spacingLeft=6;fontStyle=0;overflow=hidden;whiteSpace=wrap;html=1;" parent="xu1IErq7kuzSZ3sOeT8O-56" vertex="1">
          <mxGeometry x="30" width="140" height="30" as="geometry">
            <mxRectangle width="140" height="30" as="alternateBounds" />
          </mxGeometry>
        </mxCell>
        <mxCell id="xu1IErq7kuzSZ3sOeT8O-59" value="varchar(255)" style="shape=partialRectangle;connectable=0;fillColor=none;top=0;left=0;bottom=0;right=0;align=left;spacingLeft=6;fontStyle=0;overflow=hidden;whiteSpace=wrap;html=1;" parent="xu1IErq7kuzSZ3sOeT8O-56" vertex="1">
          <mxGeometry x="170" width="120" height="30" as="geometry">
            <mxRectangle width="120" height="30" as="alternateBounds" />
          </mxGeometry>
        </mxCell>
        <mxCell id="xu1IErq7kuzSZ3sOeT8O-60" style="edgeStyle=orthogonalEdgeStyle;rounded=0;orthogonalLoop=1;jettySize=auto;html=1;entryX=0;entryY=0.5;entryDx=0;entryDy=0;endArrow=ERzeroToMany;endFill=0;startArrow=ERmandOne;startFill=0;" parent="1" source="xu1IErq7kuzSZ3sOeT8O-8" target="xu1IErq7kuzSZ3sOeT8O-56" edge="1">
          <mxGeometry relative="1" as="geometry" />
        </mxCell>
        <mxCell id="xu1IErq7kuzSZ3sOeT8O-184" style="edgeStyle=orthogonalEdgeStyle;rounded=0;orthogonalLoop=1;jettySize=auto;html=1;endArrow=ERzeroToMany;endFill=0;startArrow=ERmandOne;startFill=0;" parent="1" source="xu1IErq7kuzSZ3sOeT8O-61" target="xu1IErq7kuzSZ3sOeT8O-154" edge="1">
          <mxGeometry relative="1" as="geometry" />
        </mxCell>
        <mxCell id="xu1IErq7kuzSZ3sOeT8O-61" value="comment" style="shape=table;startSize=30;container=1;collapsible=1;childLayout=tableLayout;fixedRows=1;rowLines=0;fontStyle=1;align=center;resizeLast=1;html=1;" parent="1" vertex="1">
          <mxGeometry x="590" y="450" width="290" height="210" as="geometry" />
        </mxCell>
        <mxCell id="xu1IErq7kuzSZ3sOeT8O-62" value="" style="shape=tableRow;horizontal=0;startSize=0;swimlaneHead=0;swimlaneBody=0;fillColor=none;collapsible=0;dropTarget=0;points=[[0,0.5],[1,0.5]];portConstraint=eastwest;top=0;left=0;right=0;bottom=1;" parent="xu1IErq7kuzSZ3sOeT8O-61" vertex="1">
          <mxGeometry y="30" width="290" height="30" as="geometry" />
        </mxCell>
        <mxCell id="xu1IErq7kuzSZ3sOeT8O-63" value="PK" style="shape=partialRectangle;connectable=0;fillColor=none;top=0;left=0;bottom=0;right=0;fontStyle=1;overflow=hidden;whiteSpace=wrap;html=1;" parent="xu1IErq7kuzSZ3sOeT8O-62" vertex="1">
          <mxGeometry width="30" height="30" as="geometry">
            <mxRectangle width="30" height="30" as="alternateBounds" />
          </mxGeometry>
        </mxCell>
        <mxCell id="xu1IErq7kuzSZ3sOeT8O-64" value="id" style="shape=partialRectangle;connectable=0;fillColor=none;top=0;left=0;bottom=0;right=0;align=left;spacingLeft=6;fontStyle=5;overflow=hidden;whiteSpace=wrap;html=1;" parent="xu1IErq7kuzSZ3sOeT8O-62" vertex="1">
          <mxGeometry x="30" width="140" height="30" as="geometry">
            <mxRectangle width="140" height="30" as="alternateBounds" />
          </mxGeometry>
        </mxCell>
        <mxCell id="xu1IErq7kuzSZ3sOeT8O-65" value="&lt;span style=&quot;font-weight: 400;&quot;&gt;int&lt;/span&gt;" style="shape=partialRectangle;connectable=0;fillColor=none;top=0;left=0;bottom=0;right=0;align=left;spacingLeft=6;fontStyle=5;overflow=hidden;whiteSpace=wrap;html=1;" parent="xu1IErq7kuzSZ3sOeT8O-62" vertex="1">
          <mxGeometry x="170" width="120" height="30" as="geometry">
            <mxRectangle width="120" height="30" as="alternateBounds" />
          </mxGeometry>
        </mxCell>
        <mxCell id="xu1IErq7kuzSZ3sOeT8O-66" value="" style="shape=tableRow;horizontal=0;startSize=0;swimlaneHead=0;swimlaneBody=0;fillColor=none;collapsible=0;dropTarget=0;points=[[0,0.5],[1,0.5]];portConstraint=eastwest;top=0;left=0;right=0;bottom=0;" parent="xu1IErq7kuzSZ3sOeT8O-61" vertex="1">
          <mxGeometry y="60" width="290" height="30" as="geometry" />
        </mxCell>
        <mxCell id="xu1IErq7kuzSZ3sOeT8O-67" value="" style="shape=partialRectangle;connectable=0;fillColor=none;top=0;left=0;bottom=0;right=0;editable=1;overflow=hidden;whiteSpace=wrap;html=1;" parent="xu1IErq7kuzSZ3sOeT8O-66" vertex="1">
          <mxGeometry width="30" height="30" as="geometry">
            <mxRectangle width="30" height="30" as="alternateBounds" />
          </mxGeometry>
        </mxCell>
        <mxCell id="xu1IErq7kuzSZ3sOeT8O-68" value="content" style="shape=partialRectangle;connectable=0;fillColor=none;top=0;left=0;bottom=0;right=0;align=left;spacingLeft=6;overflow=hidden;whiteSpace=wrap;html=1;" parent="xu1IErq7kuzSZ3sOeT8O-66" vertex="1">
          <mxGeometry x="30" width="140" height="30" as="geometry">
            <mxRectangle width="140" height="30" as="alternateBounds" />
          </mxGeometry>
        </mxCell>
        <mxCell id="xu1IErq7kuzSZ3sOeT8O-69" value="text" style="shape=partialRectangle;connectable=0;fillColor=none;top=0;left=0;bottom=0;right=0;align=left;spacingLeft=6;overflow=hidden;whiteSpace=wrap;html=1;" parent="xu1IErq7kuzSZ3sOeT8O-66" vertex="1">
          <mxGeometry x="170" width="120" height="30" as="geometry">
            <mxRectangle width="120" height="30" as="alternateBounds" />
          </mxGeometry>
        </mxCell>
        <mxCell id="xu1IErq7kuzSZ3sOeT8O-70" style="shape=tableRow;horizontal=0;startSize=0;swimlaneHead=0;swimlaneBody=0;fillColor=none;collapsible=0;dropTarget=0;points=[[0,0.5],[1,0.5]];portConstraint=eastwest;top=0;left=0;right=0;bottom=0;" parent="xu1IErq7kuzSZ3sOeT8O-61" vertex="1">
          <mxGeometry y="90" width="290" height="30" as="geometry" />
        </mxCell>
        <mxCell id="xu1IErq7kuzSZ3sOeT8O-71" style="shape=partialRectangle;connectable=0;fillColor=none;top=0;left=0;bottom=0;right=0;editable=1;overflow=hidden;whiteSpace=wrap;html=1;" parent="xu1IErq7kuzSZ3sOeT8O-70" vertex="1">
          <mxGeometry width="30" height="30" as="geometry">
            <mxRectangle width="30" height="30" as="alternateBounds" />
          </mxGeometry>
        </mxCell>
        <mxCell id="xu1IErq7kuzSZ3sOeT8O-72" value="create_at" style="shape=partialRectangle;connectable=0;fillColor=none;top=0;left=0;bottom=0;right=0;align=left;spacingLeft=6;overflow=hidden;whiteSpace=wrap;html=1;" parent="xu1IErq7kuzSZ3sOeT8O-70" vertex="1">
          <mxGeometry x="30" width="140" height="30" as="geometry">
            <mxRectangle width="140" height="30" as="alternateBounds" />
          </mxGeometry>
        </mxCell>
        <mxCell id="xu1IErq7kuzSZ3sOeT8O-73" value="timestamp" style="shape=partialRectangle;connectable=0;fillColor=none;top=0;left=0;bottom=0;right=0;align=left;spacingLeft=6;overflow=hidden;whiteSpace=wrap;html=1;" parent="xu1IErq7kuzSZ3sOeT8O-70" vertex="1">
          <mxGeometry x="170" width="120" height="30" as="geometry">
            <mxRectangle width="120" height="30" as="alternateBounds" />
          </mxGeometry>
        </mxCell>
        <mxCell id="xu1IErq7kuzSZ3sOeT8O-74" style="shape=tableRow;horizontal=0;startSize=0;swimlaneHead=0;swimlaneBody=0;fillColor=none;collapsible=0;dropTarget=0;points=[[0,0.5],[1,0.5]];portConstraint=eastwest;top=0;left=0;right=0;bottom=0;" parent="xu1IErq7kuzSZ3sOeT8O-61" vertex="1">
          <mxGeometry y="120" width="290" height="30" as="geometry" />
        </mxCell>
        <mxCell id="xu1IErq7kuzSZ3sOeT8O-75" style="shape=partialRectangle;connectable=0;fillColor=none;top=0;left=0;bottom=0;right=0;editable=1;overflow=hidden;whiteSpace=wrap;html=1;" parent="xu1IErq7kuzSZ3sOeT8O-74" vertex="1">
          <mxGeometry width="30" height="30" as="geometry">
            <mxRectangle width="30" height="30" as="alternateBounds" />
          </mxGeometry>
        </mxCell>
        <mxCell id="xu1IErq7kuzSZ3sOeT8O-76" value="update_at" style="shape=partialRectangle;connectable=0;fillColor=none;top=0;left=0;bottom=0;right=0;align=left;spacingLeft=6;overflow=hidden;whiteSpace=wrap;html=1;" parent="xu1IErq7kuzSZ3sOeT8O-74" vertex="1">
          <mxGeometry x="30" width="140" height="30" as="geometry">
            <mxRectangle width="140" height="30" as="alternateBounds" />
          </mxGeometry>
        </mxCell>
        <mxCell id="xu1IErq7kuzSZ3sOeT8O-77" value="timestamp" style="shape=partialRectangle;connectable=0;fillColor=none;top=0;left=0;bottom=0;right=0;align=left;spacingLeft=6;overflow=hidden;whiteSpace=wrap;html=1;" parent="xu1IErq7kuzSZ3sOeT8O-74" vertex="1">
          <mxGeometry x="170" width="120" height="30" as="geometry">
            <mxRectangle width="120" height="30" as="alternateBounds" />
          </mxGeometry>
        </mxCell>
        <mxCell id="xu1IErq7kuzSZ3sOeT8O-84" value="" style="shape=tableRow;horizontal=0;startSize=0;swimlaneHead=0;swimlaneBody=0;fillColor=none;collapsible=0;dropTarget=0;points=[[0,0.5],[1,0.5]];portConstraint=eastwest;top=0;left=0;right=0;bottom=0;" parent="xu1IErq7kuzSZ3sOeT8O-61" vertex="1">
          <mxGeometry y="150" width="290" height="30" as="geometry" />
        </mxCell>
        <mxCell id="xu1IErq7kuzSZ3sOeT8O-85" value="FK" style="shape=partialRectangle;connectable=0;fillColor=none;top=0;left=0;bottom=0;right=0;fontStyle=0;overflow=hidden;whiteSpace=wrap;html=1;" parent="xu1IErq7kuzSZ3sOeT8O-84" vertex="1">
          <mxGeometry width="30" height="30" as="geometry">
            <mxRectangle width="30" height="30" as="alternateBounds" />
          </mxGeometry>
        </mxCell>
        <mxCell id="xu1IErq7kuzSZ3sOeT8O-86" value="postId" style="shape=partialRectangle;connectable=0;fillColor=none;top=0;left=0;bottom=0;right=0;align=left;spacingLeft=6;fontStyle=0;overflow=hidden;whiteSpace=wrap;html=1;" parent="xu1IErq7kuzSZ3sOeT8O-84" vertex="1">
          <mxGeometry x="30" width="140" height="30" as="geometry">
            <mxRectangle width="140" height="30" as="alternateBounds" />
          </mxGeometry>
        </mxCell>
        <mxCell id="xu1IErq7kuzSZ3sOeT8O-87" value="varchar(255)" style="shape=partialRectangle;connectable=0;fillColor=none;top=0;left=0;bottom=0;right=0;align=left;spacingLeft=6;fontStyle=0;overflow=hidden;whiteSpace=wrap;html=1;" parent="xu1IErq7kuzSZ3sOeT8O-84" vertex="1">
          <mxGeometry x="170" width="120" height="30" as="geometry">
            <mxRectangle width="120" height="30" as="alternateBounds" />
          </mxGeometry>
        </mxCell>
        <mxCell id="xu1IErq7kuzSZ3sOeT8O-78" value="" style="shape=tableRow;horizontal=0;startSize=0;swimlaneHead=0;swimlaneBody=0;fillColor=none;collapsible=0;dropTarget=0;points=[[0,0.5],[1,0.5]];portConstraint=eastwest;top=0;left=0;right=0;bottom=0;" parent="xu1IErq7kuzSZ3sOeT8O-61" vertex="1">
          <mxGeometry y="180" width="290" height="30" as="geometry" />
        </mxCell>
        <mxCell id="xu1IErq7kuzSZ3sOeT8O-79" value="FK" style="shape=partialRectangle;connectable=0;fillColor=none;top=0;left=0;bottom=0;right=0;fontStyle=0;overflow=hidden;whiteSpace=wrap;html=1;" parent="xu1IErq7kuzSZ3sOeT8O-78" vertex="1">
          <mxGeometry width="30" height="30" as="geometry">
            <mxRectangle width="30" height="30" as="alternateBounds" />
          </mxGeometry>
        </mxCell>
        <mxCell id="xu1IErq7kuzSZ3sOeT8O-80" value="userId" style="shape=partialRectangle;connectable=0;fillColor=none;top=0;left=0;bottom=0;right=0;align=left;spacingLeft=6;fontStyle=0;overflow=hidden;whiteSpace=wrap;html=1;" parent="xu1IErq7kuzSZ3sOeT8O-78" vertex="1">
          <mxGeometry x="30" width="140" height="30" as="geometry">
            <mxRectangle width="140" height="30" as="alternateBounds" />
          </mxGeometry>
        </mxCell>
        <mxCell id="xu1IErq7kuzSZ3sOeT8O-81" value="varchar(255)" style="shape=partialRectangle;connectable=0;fillColor=none;top=0;left=0;bottom=0;right=0;align=left;spacingLeft=6;fontStyle=0;overflow=hidden;whiteSpace=wrap;html=1;" parent="xu1IErq7kuzSZ3sOeT8O-78" vertex="1">
          <mxGeometry x="170" width="120" height="30" as="geometry">
            <mxRectangle width="120" height="30" as="alternateBounds" />
          </mxGeometry>
        </mxCell>
        <mxCell id="xu1IErq7kuzSZ3sOeT8O-89" value="Like" style="shape=table;startSize=30;container=1;collapsible=1;childLayout=tableLayout;fixedRows=1;rowLines=0;fontStyle=1;align=center;resizeLast=1;html=1;" parent="1" vertex="1">
          <mxGeometry x="590" y="-180" width="290" height="210" as="geometry" />
        </mxCell>
        <mxCell id="xu1IErq7kuzSZ3sOeT8O-90" value="" style="shape=tableRow;horizontal=0;startSize=0;swimlaneHead=0;swimlaneBody=0;fillColor=none;collapsible=0;dropTarget=0;points=[[0,0.5],[1,0.5]];portConstraint=eastwest;top=0;left=0;right=0;bottom=1;" parent="xu1IErq7kuzSZ3sOeT8O-89" vertex="1">
          <mxGeometry y="30" width="290" height="30" as="geometry" />
        </mxCell>
        <mxCell id="xu1IErq7kuzSZ3sOeT8O-91" value="PK" style="shape=partialRectangle;connectable=0;fillColor=none;top=0;left=0;bottom=0;right=0;fontStyle=1;overflow=hidden;whiteSpace=wrap;html=1;" parent="xu1IErq7kuzSZ3sOeT8O-90" vertex="1">
          <mxGeometry width="30" height="30" as="geometry">
            <mxRectangle width="30" height="30" as="alternateBounds" />
          </mxGeometry>
        </mxCell>
        <mxCell id="xu1IErq7kuzSZ3sOeT8O-92" value="id" style="shape=partialRectangle;connectable=0;fillColor=none;top=0;left=0;bottom=0;right=0;align=left;spacingLeft=6;fontStyle=5;overflow=hidden;whiteSpace=wrap;html=1;" parent="xu1IErq7kuzSZ3sOeT8O-90" vertex="1">
          <mxGeometry x="30" width="140" height="30" as="geometry">
            <mxRectangle width="140" height="30" as="alternateBounds" />
          </mxGeometry>
        </mxCell>
        <mxCell id="xu1IErq7kuzSZ3sOeT8O-93" value="&lt;span style=&quot;font-weight: 400;&quot;&gt;varchar(255)&lt;/span&gt;" style="shape=partialRectangle;connectable=0;fillColor=none;top=0;left=0;bottom=0;right=0;align=left;spacingLeft=6;fontStyle=5;overflow=hidden;whiteSpace=wrap;html=1;" parent="xu1IErq7kuzSZ3sOeT8O-90" vertex="1">
          <mxGeometry x="170" width="120" height="30" as="geometry">
            <mxRectangle width="120" height="30" as="alternateBounds" />
          </mxGeometry>
        </mxCell>
        <mxCell id="xu1IErq7kuzSZ3sOeT8O-94" value="" style="shape=tableRow;horizontal=0;startSize=0;swimlaneHead=0;swimlaneBody=0;fillColor=none;collapsible=0;dropTarget=0;points=[[0,0.5],[1,0.5]];portConstraint=eastwest;top=0;left=0;right=0;bottom=0;" parent="xu1IErq7kuzSZ3sOeT8O-89" vertex="1">
          <mxGeometry y="60" width="290" height="30" as="geometry" />
        </mxCell>
        <mxCell id="xu1IErq7kuzSZ3sOeT8O-95" value="" style="shape=partialRectangle;connectable=0;fillColor=none;top=0;left=0;bottom=0;right=0;editable=1;overflow=hidden;whiteSpace=wrap;html=1;" parent="xu1IErq7kuzSZ3sOeT8O-94" vertex="1">
          <mxGeometry width="30" height="30" as="geometry">
            <mxRectangle width="30" height="30" as="alternateBounds" />
          </mxGeometry>
        </mxCell>
        <mxCell id="xu1IErq7kuzSZ3sOeT8O-96" value="content" style="shape=partialRectangle;connectable=0;fillColor=none;top=0;left=0;bottom=0;right=0;align=left;spacingLeft=6;overflow=hidden;whiteSpace=wrap;html=1;" parent="xu1IErq7kuzSZ3sOeT8O-94" vertex="1">
          <mxGeometry x="30" width="140" height="30" as="geometry">
            <mxRectangle width="140" height="30" as="alternateBounds" />
          </mxGeometry>
        </mxCell>
        <mxCell id="xu1IErq7kuzSZ3sOeT8O-97" value="text" style="shape=partialRectangle;connectable=0;fillColor=none;top=0;left=0;bottom=0;right=0;align=left;spacingLeft=6;overflow=hidden;whiteSpace=wrap;html=1;" parent="xu1IErq7kuzSZ3sOeT8O-94" vertex="1">
          <mxGeometry x="170" width="120" height="30" as="geometry">
            <mxRectangle width="120" height="30" as="alternateBounds" />
          </mxGeometry>
        </mxCell>
        <mxCell id="xu1IErq7kuzSZ3sOeT8O-98" style="shape=tableRow;horizontal=0;startSize=0;swimlaneHead=0;swimlaneBody=0;fillColor=none;collapsible=0;dropTarget=0;points=[[0,0.5],[1,0.5]];portConstraint=eastwest;top=0;left=0;right=0;bottom=0;" parent="xu1IErq7kuzSZ3sOeT8O-89" vertex="1">
          <mxGeometry y="90" width="290" height="30" as="geometry" />
        </mxCell>
        <mxCell id="xu1IErq7kuzSZ3sOeT8O-99" style="shape=partialRectangle;connectable=0;fillColor=none;top=0;left=0;bottom=0;right=0;editable=1;overflow=hidden;whiteSpace=wrap;html=1;" parent="xu1IErq7kuzSZ3sOeT8O-98" vertex="1">
          <mxGeometry width="30" height="30" as="geometry">
            <mxRectangle width="30" height="30" as="alternateBounds" />
          </mxGeometry>
        </mxCell>
        <mxCell id="xu1IErq7kuzSZ3sOeT8O-100" value="create_at" style="shape=partialRectangle;connectable=0;fillColor=none;top=0;left=0;bottom=0;right=0;align=left;spacingLeft=6;overflow=hidden;whiteSpace=wrap;html=1;" parent="xu1IErq7kuzSZ3sOeT8O-98" vertex="1">
          <mxGeometry x="30" width="140" height="30" as="geometry">
            <mxRectangle width="140" height="30" as="alternateBounds" />
          </mxGeometry>
        </mxCell>
        <mxCell id="xu1IErq7kuzSZ3sOeT8O-101" value="timestamp" style="shape=partialRectangle;connectable=0;fillColor=none;top=0;left=0;bottom=0;right=0;align=left;spacingLeft=6;overflow=hidden;whiteSpace=wrap;html=1;" parent="xu1IErq7kuzSZ3sOeT8O-98" vertex="1">
          <mxGeometry x="170" width="120" height="30" as="geometry">
            <mxRectangle width="120" height="30" as="alternateBounds" />
          </mxGeometry>
        </mxCell>
        <mxCell id="xu1IErq7kuzSZ3sOeT8O-102" style="shape=tableRow;horizontal=0;startSize=0;swimlaneHead=0;swimlaneBody=0;fillColor=none;collapsible=0;dropTarget=0;points=[[0,0.5],[1,0.5]];portConstraint=eastwest;top=0;left=0;right=0;bottom=0;" parent="xu1IErq7kuzSZ3sOeT8O-89" vertex="1">
          <mxGeometry y="120" width="290" height="30" as="geometry" />
        </mxCell>
        <mxCell id="xu1IErq7kuzSZ3sOeT8O-103" style="shape=partialRectangle;connectable=0;fillColor=none;top=0;left=0;bottom=0;right=0;editable=1;overflow=hidden;whiteSpace=wrap;html=1;" parent="xu1IErq7kuzSZ3sOeT8O-102" vertex="1">
          <mxGeometry width="30" height="30" as="geometry">
            <mxRectangle width="30" height="30" as="alternateBounds" />
          </mxGeometry>
        </mxCell>
        <mxCell id="xu1IErq7kuzSZ3sOeT8O-104" value="update_at" style="shape=partialRectangle;connectable=0;fillColor=none;top=0;left=0;bottom=0;right=0;align=left;spacingLeft=6;overflow=hidden;whiteSpace=wrap;html=1;" parent="xu1IErq7kuzSZ3sOeT8O-102" vertex="1">
          <mxGeometry x="30" width="140" height="30" as="geometry">
            <mxRectangle width="140" height="30" as="alternateBounds" />
          </mxGeometry>
        </mxCell>
        <mxCell id="xu1IErq7kuzSZ3sOeT8O-105" value="timestamp" style="shape=partialRectangle;connectable=0;fillColor=none;top=0;left=0;bottom=0;right=0;align=left;spacingLeft=6;overflow=hidden;whiteSpace=wrap;html=1;" parent="xu1IErq7kuzSZ3sOeT8O-102" vertex="1">
          <mxGeometry x="170" width="120" height="30" as="geometry">
            <mxRectangle width="120" height="30" as="alternateBounds" />
          </mxGeometry>
        </mxCell>
        <mxCell id="xu1IErq7kuzSZ3sOeT8O-112" value="" style="shape=tableRow;horizontal=0;startSize=0;swimlaneHead=0;swimlaneBody=0;fillColor=none;collapsible=0;dropTarget=0;points=[[0,0.5],[1,0.5]];portConstraint=eastwest;top=0;left=0;right=0;bottom=0;" parent="xu1IErq7kuzSZ3sOeT8O-89" vertex="1">
          <mxGeometry y="150" width="290" height="30" as="geometry" />
        </mxCell>
        <mxCell id="xu1IErq7kuzSZ3sOeT8O-113" value="FK" style="shape=partialRectangle;connectable=0;fillColor=none;top=0;left=0;bottom=0;right=0;fontStyle=0;overflow=hidden;whiteSpace=wrap;html=1;" parent="xu1IErq7kuzSZ3sOeT8O-112" vertex="1">
          <mxGeometry width="30" height="30" as="geometry">
            <mxRectangle width="30" height="30" as="alternateBounds" />
          </mxGeometry>
        </mxCell>
        <mxCell id="xu1IErq7kuzSZ3sOeT8O-114" value="postId" style="shape=partialRectangle;connectable=0;fillColor=none;top=0;left=0;bottom=0;right=0;align=left;spacingLeft=6;fontStyle=0;overflow=hidden;whiteSpace=wrap;html=1;" parent="xu1IErq7kuzSZ3sOeT8O-112" vertex="1">
          <mxGeometry x="30" width="140" height="30" as="geometry">
            <mxRectangle width="140" height="30" as="alternateBounds" />
          </mxGeometry>
        </mxCell>
        <mxCell id="xu1IErq7kuzSZ3sOeT8O-115" value="varchar(255)" style="shape=partialRectangle;connectable=0;fillColor=none;top=0;left=0;bottom=0;right=0;align=left;spacingLeft=6;fontStyle=0;overflow=hidden;whiteSpace=wrap;html=1;" parent="xu1IErq7kuzSZ3sOeT8O-112" vertex="1">
          <mxGeometry x="170" width="120" height="30" as="geometry">
            <mxRectangle width="120" height="30" as="alternateBounds" />
          </mxGeometry>
        </mxCell>
        <mxCell id="xu1IErq7kuzSZ3sOeT8O-106" value="" style="shape=tableRow;horizontal=0;startSize=0;swimlaneHead=0;swimlaneBody=0;fillColor=none;collapsible=0;dropTarget=0;points=[[0,0.5],[1,0.5]];portConstraint=eastwest;top=0;left=0;right=0;bottom=0;" parent="xu1IErq7kuzSZ3sOeT8O-89" vertex="1">
          <mxGeometry y="180" width="290" height="30" as="geometry" />
        </mxCell>
        <mxCell id="xu1IErq7kuzSZ3sOeT8O-107" value="FK" style="shape=partialRectangle;connectable=0;fillColor=none;top=0;left=0;bottom=0;right=0;fontStyle=0;overflow=hidden;whiteSpace=wrap;html=1;" parent="xu1IErq7kuzSZ3sOeT8O-106" vertex="1">
          <mxGeometry width="30" height="30" as="geometry">
            <mxRectangle width="30" height="30" as="alternateBounds" />
          </mxGeometry>
        </mxCell>
        <mxCell id="xu1IErq7kuzSZ3sOeT8O-108" value="userId" style="shape=partialRectangle;connectable=0;fillColor=none;top=0;left=0;bottom=0;right=0;align=left;spacingLeft=6;fontStyle=0;overflow=hidden;whiteSpace=wrap;html=1;" parent="xu1IErq7kuzSZ3sOeT8O-106" vertex="1">
          <mxGeometry x="30" width="140" height="30" as="geometry">
            <mxRectangle width="140" height="30" as="alternateBounds" />
          </mxGeometry>
        </mxCell>
        <mxCell id="xu1IErq7kuzSZ3sOeT8O-109" value="varchar(255)" style="shape=partialRectangle;connectable=0;fillColor=none;top=0;left=0;bottom=0;right=0;align=left;spacingLeft=6;fontStyle=0;overflow=hidden;whiteSpace=wrap;html=1;" parent="xu1IErq7kuzSZ3sOeT8O-106" vertex="1">
          <mxGeometry x="170" width="120" height="30" as="geometry">
            <mxRectangle width="120" height="30" as="alternateBounds" />
          </mxGeometry>
        </mxCell>
        <mxCell id="xu1IErq7kuzSZ3sOeT8O-154" value="comment_feedback" style="shape=table;startSize=30;container=1;collapsible=1;childLayout=tableLayout;fixedRows=1;rowLines=0;fontStyle=1;align=center;resizeLast=1;html=1;" parent="1" vertex="1">
          <mxGeometry x="590" y="780" width="290" height="210" as="geometry" />
        </mxCell>
        <mxCell id="xu1IErq7kuzSZ3sOeT8O-155" value="" style="shape=tableRow;horizontal=0;startSize=0;swimlaneHead=0;swimlaneBody=0;fillColor=none;collapsible=0;dropTarget=0;points=[[0,0.5],[1,0.5]];portConstraint=eastwest;top=0;left=0;right=0;bottom=1;" parent="xu1IErq7kuzSZ3sOeT8O-154" vertex="1">
          <mxGeometry y="30" width="290" height="30" as="geometry" />
        </mxCell>
        <mxCell id="xu1IErq7kuzSZ3sOeT8O-156" value="PK" style="shape=partialRectangle;connectable=0;fillColor=none;top=0;left=0;bottom=0;right=0;fontStyle=1;overflow=hidden;whiteSpace=wrap;html=1;" parent="xu1IErq7kuzSZ3sOeT8O-155" vertex="1">
          <mxGeometry width="30" height="30" as="geometry">
            <mxRectangle width="30" height="30" as="alternateBounds" />
          </mxGeometry>
        </mxCell>
        <mxCell id="xu1IErq7kuzSZ3sOeT8O-157" value="id" style="shape=partialRectangle;connectable=0;fillColor=none;top=0;left=0;bottom=0;right=0;align=left;spacingLeft=6;fontStyle=5;overflow=hidden;whiteSpace=wrap;html=1;" parent="xu1IErq7kuzSZ3sOeT8O-155" vertex="1">
          <mxGeometry x="30" width="140" height="30" as="geometry">
            <mxRectangle width="140" height="30" as="alternateBounds" />
          </mxGeometry>
        </mxCell>
        <mxCell id="xu1IErq7kuzSZ3sOeT8O-158" value="&lt;span style=&quot;font-weight: 400;&quot;&gt;int&lt;/span&gt;" style="shape=partialRectangle;connectable=0;fillColor=none;top=0;left=0;bottom=0;right=0;align=left;spacingLeft=6;fontStyle=5;overflow=hidden;whiteSpace=wrap;html=1;" parent="xu1IErq7kuzSZ3sOeT8O-155" vertex="1">
          <mxGeometry x="170" width="120" height="30" as="geometry">
            <mxRectangle width="120" height="30" as="alternateBounds" />
          </mxGeometry>
        </mxCell>
        <mxCell id="xu1IErq7kuzSZ3sOeT8O-159" value="" style="shape=tableRow;horizontal=0;startSize=0;swimlaneHead=0;swimlaneBody=0;fillColor=none;collapsible=0;dropTarget=0;points=[[0,0.5],[1,0.5]];portConstraint=eastwest;top=0;left=0;right=0;bottom=0;" parent="xu1IErq7kuzSZ3sOeT8O-154" vertex="1">
          <mxGeometry y="60" width="290" height="30" as="geometry" />
        </mxCell>
        <mxCell id="xu1IErq7kuzSZ3sOeT8O-160" value="" style="shape=partialRectangle;connectable=0;fillColor=none;top=0;left=0;bottom=0;right=0;editable=1;overflow=hidden;whiteSpace=wrap;html=1;" parent="xu1IErq7kuzSZ3sOeT8O-159" vertex="1">
          <mxGeometry width="30" height="30" as="geometry">
            <mxRectangle width="30" height="30" as="alternateBounds" />
          </mxGeometry>
        </mxCell>
        <mxCell id="xu1IErq7kuzSZ3sOeT8O-161" value="content" style="shape=partialRectangle;connectable=0;fillColor=none;top=0;left=0;bottom=0;right=0;align=left;spacingLeft=6;overflow=hidden;whiteSpace=wrap;html=1;" parent="xu1IErq7kuzSZ3sOeT8O-159" vertex="1">
          <mxGeometry x="30" width="140" height="30" as="geometry">
            <mxRectangle width="140" height="30" as="alternateBounds" />
          </mxGeometry>
        </mxCell>
        <mxCell id="xu1IErq7kuzSZ3sOeT8O-162" value="text" style="shape=partialRectangle;connectable=0;fillColor=none;top=0;left=0;bottom=0;right=0;align=left;spacingLeft=6;overflow=hidden;whiteSpace=wrap;html=1;" parent="xu1IErq7kuzSZ3sOeT8O-159" vertex="1">
          <mxGeometry x="170" width="120" height="30" as="geometry">
            <mxRectangle width="120" height="30" as="alternateBounds" />
          </mxGeometry>
        </mxCell>
        <mxCell id="xu1IErq7kuzSZ3sOeT8O-163" style="shape=tableRow;horizontal=0;startSize=0;swimlaneHead=0;swimlaneBody=0;fillColor=none;collapsible=0;dropTarget=0;points=[[0,0.5],[1,0.5]];portConstraint=eastwest;top=0;left=0;right=0;bottom=0;" parent="xu1IErq7kuzSZ3sOeT8O-154" vertex="1">
          <mxGeometry y="90" width="290" height="30" as="geometry" />
        </mxCell>
        <mxCell id="xu1IErq7kuzSZ3sOeT8O-164" style="shape=partialRectangle;connectable=0;fillColor=none;top=0;left=0;bottom=0;right=0;editable=1;overflow=hidden;whiteSpace=wrap;html=1;" parent="xu1IErq7kuzSZ3sOeT8O-163" vertex="1">
          <mxGeometry width="30" height="30" as="geometry">
            <mxRectangle width="30" height="30" as="alternateBounds" />
          </mxGeometry>
        </mxCell>
        <mxCell id="xu1IErq7kuzSZ3sOeT8O-165" value="create_at" style="shape=partialRectangle;connectable=0;fillColor=none;top=0;left=0;bottom=0;right=0;align=left;spacingLeft=6;overflow=hidden;whiteSpace=wrap;html=1;" parent="xu1IErq7kuzSZ3sOeT8O-163" vertex="1">
          <mxGeometry x="30" width="140" height="30" as="geometry">
            <mxRectangle width="140" height="30" as="alternateBounds" />
          </mxGeometry>
        </mxCell>
        <mxCell id="xu1IErq7kuzSZ3sOeT8O-166" value="timestamp" style="shape=partialRectangle;connectable=0;fillColor=none;top=0;left=0;bottom=0;right=0;align=left;spacingLeft=6;overflow=hidden;whiteSpace=wrap;html=1;" parent="xu1IErq7kuzSZ3sOeT8O-163" vertex="1">
          <mxGeometry x="170" width="120" height="30" as="geometry">
            <mxRectangle width="120" height="30" as="alternateBounds" />
          </mxGeometry>
        </mxCell>
        <mxCell id="xu1IErq7kuzSZ3sOeT8O-167" style="shape=tableRow;horizontal=0;startSize=0;swimlaneHead=0;swimlaneBody=0;fillColor=none;collapsible=0;dropTarget=0;points=[[0,0.5],[1,0.5]];portConstraint=eastwest;top=0;left=0;right=0;bottom=0;" parent="xu1IErq7kuzSZ3sOeT8O-154" vertex="1">
          <mxGeometry y="120" width="290" height="30" as="geometry" />
        </mxCell>
        <mxCell id="xu1IErq7kuzSZ3sOeT8O-168" style="shape=partialRectangle;connectable=0;fillColor=none;top=0;left=0;bottom=0;right=0;editable=1;overflow=hidden;whiteSpace=wrap;html=1;" parent="xu1IErq7kuzSZ3sOeT8O-167" vertex="1">
          <mxGeometry width="30" height="30" as="geometry">
            <mxRectangle width="30" height="30" as="alternateBounds" />
          </mxGeometry>
        </mxCell>
        <mxCell id="xu1IErq7kuzSZ3sOeT8O-169" value="update_at" style="shape=partialRectangle;connectable=0;fillColor=none;top=0;left=0;bottom=0;right=0;align=left;spacingLeft=6;overflow=hidden;whiteSpace=wrap;html=1;" parent="xu1IErq7kuzSZ3sOeT8O-167" vertex="1">
          <mxGeometry x="30" width="140" height="30" as="geometry">
            <mxRectangle width="140" height="30" as="alternateBounds" />
          </mxGeometry>
        </mxCell>
        <mxCell id="xu1IErq7kuzSZ3sOeT8O-170" value="timestamp" style="shape=partialRectangle;connectable=0;fillColor=none;top=0;left=0;bottom=0;right=0;align=left;spacingLeft=6;overflow=hidden;whiteSpace=wrap;html=1;" parent="xu1IErq7kuzSZ3sOeT8O-167" vertex="1">
          <mxGeometry x="170" width="120" height="30" as="geometry">
            <mxRectangle width="120" height="30" as="alternateBounds" />
          </mxGeometry>
        </mxCell>
        <mxCell id="xu1IErq7kuzSZ3sOeT8O-171" value="" style="shape=tableRow;horizontal=0;startSize=0;swimlaneHead=0;swimlaneBody=0;fillColor=none;collapsible=0;dropTarget=0;points=[[0,0.5],[1,0.5]];portConstraint=eastwest;top=0;left=0;right=0;bottom=0;" parent="xu1IErq7kuzSZ3sOeT8O-154" vertex="1">
          <mxGeometry y="150" width="290" height="30" as="geometry" />
        </mxCell>
        <mxCell id="xu1IErq7kuzSZ3sOeT8O-172" value="FK" style="shape=partialRectangle;connectable=0;fillColor=none;top=0;left=0;bottom=0;right=0;fontStyle=0;overflow=hidden;whiteSpace=wrap;html=1;" parent="xu1IErq7kuzSZ3sOeT8O-171" vertex="1">
          <mxGeometry width="30" height="30" as="geometry">
            <mxRectangle width="30" height="30" as="alternateBounds" />
          </mxGeometry>
        </mxCell>
        <mxCell id="xu1IErq7kuzSZ3sOeT8O-173" value="postId" style="shape=partialRectangle;connectable=0;fillColor=none;top=0;left=0;bottom=0;right=0;align=left;spacingLeft=6;fontStyle=0;overflow=hidden;whiteSpace=wrap;html=1;" parent="xu1IErq7kuzSZ3sOeT8O-171" vertex="1">
          <mxGeometry x="30" width="140" height="30" as="geometry">
            <mxRectangle width="140" height="30" as="alternateBounds" />
          </mxGeometry>
        </mxCell>
        <mxCell id="xu1IErq7kuzSZ3sOeT8O-174" value="int" style="shape=partialRectangle;connectable=0;fillColor=none;top=0;left=0;bottom=0;right=0;align=left;spacingLeft=6;fontStyle=0;overflow=hidden;whiteSpace=wrap;html=1;" parent="xu1IErq7kuzSZ3sOeT8O-171" vertex="1">
          <mxGeometry x="170" width="120" height="30" as="geometry">
            <mxRectangle width="120" height="30" as="alternateBounds" />
          </mxGeometry>
        </mxCell>
        <mxCell id="xu1IErq7kuzSZ3sOeT8O-179" value="" style="shape=tableRow;horizontal=0;startSize=0;swimlaneHead=0;swimlaneBody=0;fillColor=none;collapsible=0;dropTarget=0;points=[[0,0.5],[1,0.5]];portConstraint=eastwest;top=0;left=0;right=0;bottom=0;" parent="xu1IErq7kuzSZ3sOeT8O-154" vertex="1">
          <mxGeometry y="180" width="290" height="30" as="geometry" />
        </mxCell>
        <mxCell id="xu1IErq7kuzSZ3sOeT8O-180" value="FK" style="shape=partialRectangle;connectable=0;fillColor=none;top=0;left=0;bottom=0;right=0;fontStyle=0;overflow=hidden;whiteSpace=wrap;html=1;" parent="xu1IErq7kuzSZ3sOeT8O-179" vertex="1">
          <mxGeometry width="30" height="30" as="geometry">
            <mxRectangle width="30" height="30" as="alternateBounds" />
          </mxGeometry>
        </mxCell>
        <mxCell id="xu1IErq7kuzSZ3sOeT8O-181" value="comment" style="shape=partialRectangle;connectable=0;fillColor=none;top=0;left=0;bottom=0;right=0;align=left;spacingLeft=6;fontStyle=0;overflow=hidden;whiteSpace=wrap;html=1;" parent="xu1IErq7kuzSZ3sOeT8O-179" vertex="1">
          <mxGeometry x="30" width="140" height="30" as="geometry">
            <mxRectangle width="140" height="30" as="alternateBounds" />
          </mxGeometry>
        </mxCell>
        <mxCell id="xu1IErq7kuzSZ3sOeT8O-182" value="int" style="shape=partialRectangle;connectable=0;fillColor=none;top=0;left=0;bottom=0;right=0;align=left;spacingLeft=6;fontStyle=0;overflow=hidden;whiteSpace=wrap;html=1;" parent="xu1IErq7kuzSZ3sOeT8O-179" vertex="1">
          <mxGeometry x="170" width="120" height="30" as="geometry">
            <mxRectangle width="120" height="30" as="alternateBounds" />
          </mxGeometry>
        </mxCell>
      </root>
    </mxGraphModel>
  </diagram>
</mxfile>
